<?xml version="1.0" encoding="UTF-8" standalone="no"?>
<!-- Created with Inkscape (http://www.inkscape.org/) -->

<svg
   version="1.1"
   id="svg2"
   xml:space="preserve"
   width="356.72131"
   height="184.54214"
   viewBox="0 0 356.7213 184.54215"
   sodipodi:docname="bifacial_sketch_3D.svg"
   inkscape:version="1.2.1 (9c6d41e410, 2022-07-14)"
   xmlns:inkscape="http://www.inkscape.org/namespaces/inkscape"
   xmlns:sodipodi="http://sodipodi.sourceforge.net/DTD/sodipodi-0.dtd"
   xmlns="http://www.w3.org/2000/svg"
   xmlns:svg="http://www.w3.org/2000/svg"><defs
     id="defs6"><clipPath
       clipPathUnits="userSpaceOnUse"
       id="clipPath68"><path
         d="M 0,139.689 H 267.541 V 0 H 0 Z"
         id="path66" /></clipPath><clipPath
       clipPathUnits="userSpaceOnUse"
       id="clipPath76"><path
         d="M 0,71.8899 H 128.542 V 15.8092 H 0 Z"
         id="path74" /></clipPath><clipPath
       clipPathUnits="userSpaceOnUse"
       id="clipPath92"><path
         d="M 0,139.689 H 267.541 V 71.9145 H 0 Z"
         id="path90" /></clipPath><clipPath
       clipPathUnits="userSpaceOnUse"
       id="clipPath108"><path
         d="M 128.693,71.8652 H 267.464 V 15.8333 H 128.693 Z"
         id="path106" /></clipPath><clipPath
       clipPathUnits="userSpaceOnUse"
       id="clipPath124"><path
         d="M 12.5466,71.9022 H 128.64 V 15.8223 H 12.5466 Z"
         id="path122" /></clipPath><clipPath
       clipPathUnits="userSpaceOnUse"
       id="clipPath140"><path
         d="M 36.8554,71.9022 H 128.64 V 15.8113 H 36.8554 Z"
         id="path138" /></clipPath><clipPath
       clipPathUnits="userSpaceOnUse"
       id="clipPath156"><path
         d="m 126.189,71.9022 h 65.024 V 15.8113 h -65.024 z"
         id="path154" /></clipPath><clipPath
       clipPathUnits="userSpaceOnUse"
       id="clipPath172"><path
         d="m 101.88,71.9022 h 26.76 V 15.8113 h -26.76 z"
         id="path170" /></clipPath><clipPath
       clipPathUnits="userSpaceOnUse"
       id="clipPath188"><path
         d="m 128.64,71.9022 h 86.882 V 15.8223 H 128.64 Z"
         id="path186" /></clipPath><clipPath
       clipPathUnits="userSpaceOnUse"
       id="clipPath292"><path
         d="M 0,139.689 H 267.541 V 0 H 0 Z"
         id="path290" /></clipPath><clipPath
       clipPathUnits="userSpaceOnUse"
       id="clipPath420"><path
         d="M 0,139.689 H 267.541 V 0 H 0 Z"
         id="path418" /></clipPath><clipPath
       clipPathUnits="userSpaceOnUse"
       id="clipPath444"><path
         d="M 0,139.689 H 267.541 V 0 H 0 Z"
         id="path442" /></clipPath><clipPath
       clipPathUnits="userSpaceOnUse"
       id="clipPath460"><path
         d="M 0,139.689 H 267.541 V 0 H 0 Z"
         id="path458" /></clipPath><clipPath
       clipPathUnits="userSpaceOnUse"
       id="clipPath484"><path
         d="M 0,139.689 H 267.541 V 0 H 0 Z"
         id="path482" /></clipPath></defs><sodipodi:namedview
     id="namedview4"
     pagecolor="#ffffff"
     bordercolor="#666666"
     borderopacity="1.0"
     inkscape:pageshadow="2"
     inkscape:pageopacity="0.0"
     inkscape:pagecheckerboard="0"
     showgrid="false"
     inkscape:zoom="1.3865758"
     inkscape:cx="117.91638"
     inkscape:cy="-13.702821"
     inkscape:window-width="1920"
     inkscape:window-height="1137"
     inkscape:window-x="1912"
     inkscape:window-y="-8"
     inkscape:window-maximized="1"
     inkscape:current-layer="g8"
     inkscape:showpageshadow="2"
     inkscape:deskcolor="#d1d1d1" /><g
     id="g8"
     inkscape:groupmode="layer"
     inkscape:label="bifacial_sketch_3D"
     transform="matrix(1.3333333,0,0,-1.3333333,0,186.2511)"><g
       id="g10"
       transform="translate(0,20.3625)"><path
         d="M 0,0 V -4.54 L 18.722,-4.551 267.541,-4.53 V 0.022 Z"
         style="fill:#7b7979;fill-opacity:1;fill-rule:nonzero;stroke:none"
         id="path12" /></g><g
       id="g14"
       transform="translate(121.5722,52.9482)"><path
         d="m 0,0 -12.51,-4.54 39.351,47.238 12.51,4.54 z"
         style="fill:#2c3792;fill-opacity:1;fill-rule:nonzero;stroke:none"
         id="path16" /></g><g
       id="g18"
       transform="translate(146.5175,97.2021)"><path
         d="M 0,0 12.51,4.603 14.37,3.053 1.86,-1.55 Z"
         style="fill:#7169b7;fill-opacity:1;fill-rule:nonzero;stroke:none"
         id="path20" /></g><g
       id="g26"
       transform="translate(32.2944,52.9785)"><path
         d="m 0,0 -12.51,-4.54 39.351,47.238 12.51,4.54 z"
         style="fill:#2c3792;fill-opacity:1;fill-rule:nonzero;stroke:none"
         id="path28" /></g><g
       id="g30"
       transform="translate(57.2397,97.2329)"><path
         d="M 0,0 12.51,4.604 14.371,3.054 1.861,-1.55 Z"
         style="fill:#7169b7;fill-opacity:1;fill-rule:nonzero;stroke:none"
         id="path32" /></g><g
       id="g34"
       transform="translate(57.35,97.2949)"><path
         d="M 0,0 12.51,4.603"
         style="fill:none;stroke:#a47343;stroke-width:0.75;stroke-linecap:round;stroke-linejoin:miter;stroke-miterlimit:10;stroke-dasharray:none;stroke-opacity:1"
         id="path36" /></g><g
       id="g38"
       transform="translate(211.0673,52.9482)"
       style="fill:#000000;fill-opacity:1"><path
         d="m 0,0 -12.511,-4.54 39.352,47.238 12.51,4.54 z"
         style="fill:#000000;fill-opacity:1;fill-rule:nonzero;stroke:none"
         id="path40" /></g><g
       id="g42"
       transform="translate(236.0126,97.2026)"><path
         d="M 0,0 12.51,4.604 14.37,3.053 1.86,-1.55 Z"
         style="fill:#7169b7;fill-opacity:1;fill-rule:nonzero;stroke:none"
         id="path44" /></g><g
       id="g50"
       transform="translate(114.3901,20.3623)"><path
         d="m 0,0 -12.51,-4.54 v -0.011 l 24.309,0.033 12.51,4.54 z"
         style="fill:#fbca8e;fill-opacity:1;fill-rule:nonzero;stroke:none"
         id="path52" /></g><g
       id="g54"
       transform="translate(203.7236,20.3623)"><path
         d="m 0,0 -12.511,-4.54 v -0.011 l 24.31,0.033 12.51,4.54 z"
         style="fill:#fbca8e;fill-opacity:1;fill-rule:nonzero;stroke:none"
         id="path56" /></g><g
       id="g58"
       transform="translate(25.0566,20.3623)"><path
         d="m 0,0 -12.51,-4.54 v -0.011 l 24.309,0.033 12.51,4.54 z"
         style="fill:#fbca8e;fill-opacity:1;fill-rule:nonzero;stroke:none"
         id="path60" /></g><g
       id="g198"
       transform="translate(0,15.8094)"><path
         d="m 0,0 v -4.56 -0.011 l 267.541,0.022 v 4.551 z"
         style="fill:#7b7979;fill-opacity:1;fill-rule:nonzero;stroke:none"
         id="path200" /></g><g
       id="g202"
       transform="translate(198.5488,48.4229)"
       style="fill:#000000;fill-opacity:1"><path
         d="m 0,0 -12.51,-4.54 39.351,47.238 12.511,4.54 z"
         style="fill:#000000;fill-opacity:1;fill-rule:nonzero;stroke:none"
         id="path204" /></g><g
       id="g206"
       transform="translate(19.7714,48.4229)"><path
         d="m 0,0 -12.51,-4.54 39.351,47.238 12.51,4.54 z"
         style="fill:#2c3792;fill-opacity:1;fill-rule:nonzero;stroke:none"
         id="path208" /></g><g
       id="g210"
       transform="translate(198.4921,15.8115)"><path
         d="M 0,0 V 32.597"
         style="fill:none;stroke:#7b7979;stroke-width:0.75;stroke-linecap:butt;stroke-linejoin:miter;stroke-miterlimit:10;stroke-dasharray:none;stroke-opacity:1"
         id="path212" /></g><g
       id="g214"
       transform="translate(109.062,15.8115)"><path
         d="M 0,0 V 32.597"
         style="fill:none;stroke:#7b7979;stroke-width:0.75;stroke-linecap:butt;stroke-linejoin:miter;stroke-miterlimit:10;stroke-dasharray:none;stroke-opacity:1"
         id="path216" /></g><g
       id="g218"
       transform="translate(19.7426,15.8604)"><path
         d="M 0,0 V 32.548"
         style="fill:none;stroke:#7b7979;stroke-width:0.75;stroke-linecap:butt;stroke-linejoin:miter;stroke-miterlimit:10;stroke-dasharray:none;stroke-opacity:1"
         id="path220" /></g><g
       id="g222"
       transform="translate(109.0537,48.4229)"><path
         d="m 0,0 -12.51,-4.54 39.351,47.238 12.51,4.54 z"
         style="fill:#2c3792;fill-opacity:1;fill-rule:nonzero;stroke:none"
         id="path224" /></g><g
       id="g226"
       transform="translate(133.9716,92.6069)"><path
         d="M 0,0 12.511,4.604 14.371,3.054 1.861,-1.55 Z"
         style="fill:#7169b7;fill-opacity:1;fill-rule:nonzero;stroke:none"
         id="path228" /></g><g
       id="g234"
       transform="translate(94.6709,45.4326)"><path
         d="m 0,0 39.352,47.238 1.86,-1.55 L 1.861,-1.55 Z"
         style="fill:#4c4ba4;fill-opacity:1;fill-rule:nonzero;stroke:none"
         id="path236" /></g><g
       id="g242"
       transform="translate(44.6899,92.6069)"><path
         d="M 0,0 12.51,4.604 14.371,3.054 1.86,-1.55 Z"
         style="fill:#7169b7;fill-opacity:1;fill-rule:nonzero;stroke:none"
         id="path244" /></g><g
       id="g246"
       transform="translate(44.6899,92.6069)"><path
         d="M 0,0 12.51,4.604"
         style="fill:none;stroke:#a47343;stroke-width:0.75;stroke-linecap:round;stroke-linejoin:miter;stroke-miterlimit:10;stroke-dasharray:none;stroke-opacity:1"
         id="path248" /></g><g
       id="g250"
       transform="translate(5.3886,45.4326)"><path
         d="M 0,0 39.351,47.238 41.212,45.688 1.861,-1.55 Z"
         style="fill:#4c4ba4;fill-opacity:1;fill-rule:nonzero;stroke:none"
         id="path252" /></g><g
       id="g254"
       transform="translate(5.3886,45.4326)"><path
         d="M 0,0 39.351,47.238"
         style="fill:none;stroke:#6f4324;stroke-width:0.75;stroke-linecap:butt;stroke-linejoin:miter;stroke-miterlimit:10;stroke-dasharray:none;stroke-opacity:1"
         id="path256" /></g><g
       id="g258"
       transform="translate(223.4677,92.6069)"><path
         d="M 0,0 12.51,4.604 14.37,3.054 1.86,-1.55 Z"
         style="fill:#7169b7;fill-opacity:1;fill-rule:nonzero;stroke:none"
         id="path260" /></g><g
       id="g266"
       transform="translate(184.1669,45.4326)"><path
         d="m 0,0 39.351,47.238 1.86,-1.55 L 1.86,-1.55 Z"
         style="fill:#4c4ba4;fill-opacity:1;fill-rule:nonzero;stroke:none"
         id="path268" /></g><g
       id="g274"
       transform="translate(101.8437,15.7891)"><path
         d="m 0,0 -12.51,-4.54 v -0.011 l 24.308,0.033 12.511,4.54 z"
         style="fill:#fbca8e;fill-opacity:1;fill-rule:nonzero;stroke:none"
         id="path276" /></g><g
       id="g278"
       transform="translate(191.1767,15.7891)"><path
         d="m 0,0 -12.51,-4.54 v -0.011 l 24.309,0.033 12.51,4.54 z"
         style="fill:#fbca8e;fill-opacity:1;fill-rule:nonzero;stroke:none"
         id="path280" /></g><g
       id="g282"
       transform="translate(12.51,15.7887)"><path
         d="m 0,0 -12.51,-4.54 v -0.01 l 24.308,0.033 12.511,4.54 z"
         style="fill:#fbca8e;fill-opacity:1;fill-rule:nonzero;stroke:none"
         id="path284" /></g><g
       id="g286"><g
         id="g288"
         clip-path="url(#clipPath292)"><g
           id="g294"
           transform="translate(213.4482,55.8076)"><path
             d="M 0,0 C 1.164,-2.211 1.822,-4.728 1.822,-7.399"
             style="fill:none;stroke:#231f20;stroke-width:0.25;stroke-linecap:butt;stroke-linejoin:miter;stroke-miterlimit:10;stroke-dasharray:none;stroke-opacity:1"
             id="path296" /></g><g
           id="g298"
           transform="translate(209.4785,60.6865)"><path
             d="M 0,0 C 1.626,-1.342 2.98,-2.999 3.97,-4.879"
             style="fill:none;stroke:#ffffff;stroke-width:0.25;stroke-linecap:butt;stroke-linejoin:miter;stroke-miterlimit:10;stroke-dasharray:none;stroke-opacity:1"
             id="path300" /></g><g
           id="g302"
           transform="translate(95.2319,134.2744)"><path
             d="M 0,0 23.214,-43.582"
             style="fill:none;stroke:#f68712;stroke-width:0.75;stroke-linecap:round;stroke-linejoin:miter;stroke-miterlimit:10;stroke-dasharray:none;stroke-opacity:1"
             id="path304" /></g><g
           id="g306"
           transform="translate(114.2563,93.4839)"><path
             d="M 0,0 0.502,0.558 4.155,-2.727 3.468,2.138 4.21,2.243 5.186,-4.662 Z"
             style="fill:#f68712;fill-opacity:1;fill-rule:nonzero;stroke:none"
             id="path308" /></g><g
           id="g310"
           transform="translate(92.4106,139.5708)"><path
             d="M 0,0 30.959,-58.122"
             style="fill:none;stroke:#f68712;stroke-width:0.5;stroke-linecap:butt;stroke-linejoin:miter;stroke-miterlimit:10;stroke-dasharray:none;stroke-opacity:1"
             id="path312" /></g><g
           id="g314"
           transform="translate(111.3842,22.4199)"><path
             d="M 0,0 H 85.077"
             style="fill:none;stroke:#231f20;stroke-width:0.5;stroke-linecap:round;stroke-linejoin:miter;stroke-miterlimit:10;stroke-dasharray:none;stroke-opacity:1"
             id="path316" /></g><g
           id="g318"
           transform="translate(114.3398,20.8291)"><path
             d="M 0,0 0.171,0.471 -2.907,1.591 0.171,2.711 0,3.181 -4.368,1.591 Z"
             style="fill:#231f20;fill-opacity:1;fill-rule:nonzero;stroke:none"
             id="path320" /></g><g
           id="g322"
           transform="translate(193.5058,20.8291)"><path
             d="M 0,0 -0.171,0.471 2.906,1.591 -0.171,2.711 0,3.181 4.368,1.591 Z"
             style="fill:#231f20;fill-opacity:1;fill-rule:nonzero;stroke:none"
             id="path324" /></g><g
           id="g326"
           transform="translate(198.5566,48.4082)"><path
             d="M 0,0 H 18.254"
             style="fill:none;stroke:#231f20;stroke-width:0.25;stroke-linecap:butt;stroke-linejoin:miter;stroke-miterlimit:10;stroke-dasharray:none;stroke-opacity:1"
             id="path328" /></g><g
           id="g330"
           transform="translate(237.6923,95.4951)"><path
             d="M 0,0 -39.001,-47.039"
             style="fill:none;stroke:#ffffff;stroke-width:0.5;stroke-linecap:round;stroke-linejoin:miter;stroke-miterlimit:10;stroke-dasharray:none;stroke-opacity:1"
             id="path332" /></g><g
           id="g334"
           transform="translate(124.3193,79.6309)"><path
             d="M 0,0 4.319,-8.136"
             style="fill:none;stroke:#7b7979;stroke-width:0.5;stroke-linecap:butt;stroke-linejoin:miter;stroke-miterlimit:10;stroke-dasharray:none;stroke-opacity:1"
             id="path336" /></g><g
           id="g338"
           transform="translate(99.9409,44.3574)"><path
             d="M 0,0 -2.63,-2.532"
             style="fill:none;stroke:#7b7979;stroke-width:0.25;stroke-linecap:butt;stroke-linejoin:miter;stroke-miterlimit:10;stroke-dasharray:none;stroke-opacity:1"
             id="path340" /></g><g
           id="g342"
           transform="translate(90.1811,51.6338)"><path
             d="M 0,0 14.245,7.521"
             style="fill:none;stroke:#f68712;stroke-width:0.25;stroke-linecap:butt;stroke-linejoin:miter;stroke-miterlimit:10;stroke-dasharray:none;stroke-opacity:1"
             id="path344" /></g><g
           id="g346"
           transform="translate(103.4902,57.7617)"><path
             d="M 0,0 -0.186,0.168 0.914,1.382 -0.708,1.159 -0.743,1.406 1.56,1.724 Z"
             style="fill:#f68712;fill-opacity:1;fill-rule:nonzero;stroke:none"
             id="path348" /></g><g
           id="g350"
           transform="translate(140.9902,47.625)"><path
             d="M 0,0 7.281,-14.193"
             style="fill:none;stroke:#7b7979;stroke-width:0.25;stroke-linecap:butt;stroke-linejoin:miter;stroke-miterlimit:10;stroke-dasharray:none;stroke-opacity:1"
             id="path352" /></g><g
           id="g354"
           transform="translate(140.957,45.9473)"><path
             d="M 0,0 0.248,0.031 0.044,1.656 1.245,0.543 1.415,0.726 -0.289,2.307 Z"
             style="fill:#7b7979;fill-opacity:1;fill-rule:nonzero;stroke:none"
             id="path356" /></g><g
           id="g358"
           transform="translate(118.4199,29.7842)"><path
             d="M 0,0 3.747,15.587"
             style="fill:none;stroke:#f68712;stroke-width:0.25;stroke-linecap:butt;stroke-linejoin:miter;stroke-miterlimit:10;stroke-dasharray:none;stroke-opacity:1"
             id="path360" /></g><g
           id="g362"
           transform="translate(122.5947,43.748)"><path
             d="M 0,0 -0.249,-0.028 -0.434,1.599 -1.338,0.233 -1.546,0.372 -0.263,2.31 Z"
             style="fill:#f68712;fill-opacity:1;fill-rule:nonzero;stroke:none"
             id="path364" /></g><g
           id="g366"
           transform="translate(153.2324,60.3008)"><path
             d="M 0,0 14.391,-6.754"
             style="fill:none;stroke:#7b7979;stroke-width:0.25;stroke-linecap:butt;stroke-linejoin:miter;stroke-miterlimit:10;stroke-dasharray:none;stroke-opacity:1"
             id="path368" /></g><g
           id="g370"
           transform="translate(154.2324,58.9531)"><path
             d="M 0,0 0.177,0.177 -0.979,1.338 0.653,1.19 0.676,1.439 -1.64,1.648 Z"
             style="fill:#7b7979;fill-opacity:1;fill-rule:nonzero;stroke:none"
             id="path372" /></g><g
           id="g374"
           transform="translate(163.039,45.707)"><path
             d="M 0,0 -12.778,9.699"
             style="fill:none;stroke:#f68712;stroke-width:0.25;stroke-linecap:butt;stroke-linejoin:miter;stroke-miterlimit:10;stroke-dasharray:none;stroke-opacity:1"
             id="path376" /></g><g
           id="g378"
           transform="translate(151.9189,55.1455)"><path
             d="m 0,0 -0.074,-0.238 -1.565,0.483 0.888,-1.376 -0.21,-0.136 -1.26,1.954 z"
             style="fill:#f68712;fill-opacity:1;fill-rule:nonzero;stroke:none"
             id="path380" /></g><g
           id="g382"
           transform="translate(87.4643,57.9023)"><path
             d="M 0,0 15.259,5.196"
             style="fill:none;stroke:#7b7979;stroke-width:0.25;stroke-linecap:butt;stroke-linejoin:miter;stroke-miterlimit:10;stroke-dasharray:none;stroke-opacity:1"
             id="path384" /></g><g
           id="g386"
           transform="translate(101.5805,61.8691)"><path
             d="M 0,0 -0.156,0.195 1.12,1.222 -0.518,1.256 -0.512,1.506 1.812,1.457 Z"
             style="fill:#7b7979;fill-opacity:1;fill-rule:nonzero;stroke:none"
             id="path388" /></g><g
           id="g390"
           transform="translate(197.291,47.9561)"><path
             d="M 0,0 3.124,1.116"
             style="fill:none;stroke:#ffffff;stroke-width:0.5;stroke-linecap:round;stroke-linejoin:miter;stroke-miterlimit:10;stroke-dasharray:none;stroke-opacity:1"
             id="path392" /></g><g
           id="g394"
           transform="translate(236.1308,95.0342)"><path
             d="M 0,0 3.123,1.116"
             style="fill:none;stroke:#ffffff;stroke-width:0.5;stroke-linecap:round;stroke-linejoin:miter;stroke-miterlimit:10;stroke-dasharray:none;stroke-opacity:1"
             id="path396" /></g></g></g><text
       transform="matrix(1,0,0,-1,210.0322,66.998)"
       style="font-style:italic;font-variant:normal;font-weight:normal;font-stretch:normal;font-size:9px;font-family:'Myriad Pro';-inkscape-font-specification:MyriadPro-It;writing-mode:lr-tb;fill:#231f20;fill-opacity:1;fill-rule:nonzero;stroke:none"
       id="text404"><tspan
         x="0"
         y="0"
         id="tspan398">ℓ</tspan><tspan
         x="-57.582001"
         y="42.138"
         id="tspan400">d</tspan><tspan
         x="-8.5950003"
         y="39.042"
         id="tspan402">h</tspan></text><text
       transform="matrix(0.47485955,-0.8800616,-0.8800616,-0.47485955,101.0621,128.1638)"
       style="font-variant:normal;font-weight:normal;font-stretch:normal;font-size:6.99996px;font-family:'Segoe Print';-inkscape-font-specification:SegoePrint;writing-mode:lr-tb;fill:#f68712;fill-opacity:1;fill-rule:nonzero;stroke:none"
       id="text408"><tspan
         x="0 2.9679849 7.2379632 11.87894 15.952919 19.592901 23.70188"
         y="0"
         sodipodi:role="line"
         id="tspan406">sunbeam</tspan></text><text
       transform="matrix(1,0,0,-1,1.3887,85.6758)"
       style="font-variant:normal;font-weight:normal;font-stretch:normal;font-size:7px;font-family:'Segoe Print';-inkscape-font-specification:SegoePrint;writing-mode:lr-tb;fill:#c56827;fill-opacity:1;fill-rule:nonzero;stroke:none"
       id="text412"><tspan
         x="0 4.5219998 8.1661997 11.7292 15.6842 19.506201 22.479099 26.6161 28.639099 31.9221"
         y="0"
         sodipodi:role="line"
         id="tspan410">perovskite</tspan></text><g
       id="g414"><g
         id="g416"
         clip-path="url(#clipPath420)"><g
           id="g422"
           transform="translate(24.7231,83.6758)"><path
             d="M 0,0 C 0,-3.778 3.299,-5.01 4.767,-5.37"
             style="fill:none;stroke:#231f20;stroke-width:0.25;stroke-linecap:butt;stroke-linejoin:miter;stroke-miterlimit:10;stroke-dasharray:none;stroke-opacity:1"
             id="path424" /></g><g
           id="g426"
           transform="translate(27.8652,77.9658)"><path
             d="M 0,0 -0.022,0.25 1.609,0.394 0.268,1.332 0.411,1.536 2.315,0.204 Z"
             style="fill:#231f20;fill-opacity:1;fill-rule:nonzero;stroke:none"
             id="path428" /></g></g></g><text
       transform="matrix(1,0,0,-1,206.353,52.6865)"
       style="font-style:italic;font-variant:normal;font-weight:normal;font-stretch:normal;font-size:7px;font-family:'Myriad Pro';-inkscape-font-specification:MyriadPro-It;writing-mode:lr-tb;fill:#ffffff;fill-opacity:1;fill-rule:nonzero;stroke:none"
       id="text432"><tspan
         x="0"
         y="0"
         id="tspan430">θ</tspan></text><text
       transform="matrix(1,0,0,-1,209.9653,50.3555)"
       style="font-style:italic;font-variant:normal;font-weight:normal;font-stretch:normal;font-size:4.081px;font-family:'Myriad Pro';-inkscape-font-specification:MyriadPro-It;writing-mode:lr-tb;fill:#231f20;fill-opacity:1;fill-rule:nonzero;stroke:none"
       id="text436"><tspan
         x="0"
         y="0"
         id="tspan434">m</tspan></text><g
       id="g438"><g
         id="g440"
         clip-path="url(#clipPath444)"><g
           id="g446"
           transform="translate(129.3466,71.8408)"><path
             d="m 0,0 c 0,-0.392 -0.317,-0.709 -0.708,-0.709 -0.392,0 -0.709,0.317 -0.709,0.709 0,0.392 0.317,0.709 0.709,0.709 C -0.317,0.709 0,0.392 0,0"
             style="fill:#ffffff;fill-opacity:1;fill-rule:nonzero;stroke:none"
             id="path448" /></g></g></g><text
       transform="matrix(1,0,0,-1,50.9453,71.0068)"
       style="font-variant:normal;font-weight:normal;font-stretch:normal;font-size:7px;font-family:'Segoe Print';-inkscape-font-specification:SegoePrint;writing-mode:lr-tb;fill:#303d9c;fill-opacity:1;fill-rule:nonzero;stroke:none"
       id="text452"><tspan
         x="0 2.9679999 4.9910002 6.993 9.0159998 12.565 16.52"
         y="0"
         sodipodi:role="line"
         id="tspan450">silicon</tspan></text><g
       id="g454"><g
         id="g456"
         clip-path="url(#clipPath460)"><g
           id="g462"
           transform="translate(55.5195,69.0068)"><path
             d="M 0,0 C -1.41,-5.24 -7.868,-4.331 -10.017,-3.224"
             style="fill:none;stroke:#231f20;stroke-width:0.25;stroke-linecap:butt;stroke-linejoin:miter;stroke-miterlimit:10;stroke-dasharray:none;stroke-opacity:1"
             id="path464" /></g><g
           id="g466"
           transform="translate(47.2353,65.9365)"><path
             d="m 0,0 -0.027,-0.249 -1.628,0.178 1.133,-1.183 -0.18,-0.173 -1.609,1.678 z"
             style="fill:#231f20;fill-opacity:1;fill-rule:nonzero;stroke:none"
             id="path468" /></g></g></g><text
       transform="matrix(1,0,0,-1,25.0645,125.6982)"
       style="font-variant:normal;font-weight:normal;font-stretch:normal;font-size:7px;font-family:'Segoe Print';-inkscape-font-specification:SegoePrint;writing-mode:lr-tb;fill:#656263;fill-opacity:1;fill-rule:nonzero;stroke:none"
       id="text476"><tspan
         x="0 4.6269999 6.6500001 9.2609997 11.8685 16.1385 19.106501 22.7465 25.546499 28.5145 32.651501 36.788502 38.790501 40.813499 44.831501 49.213501"
         y="0"
         sodipodi:role="line"
         id="tspan470">diffuse skylight</tspan><tspan
         x="0 4.6269999 6.6500001 9.2609997 11.8685 16.1385 19.106501 22.7465 25.546499 27.5485 29.571501 33.5895 37.9715"
         y="89.585999"
         sodipodi:role="line"
         id="tspan472">diffuse light</tspan><tspan
         x="0 3.5994 7.2393999 9.8504 11.8524 15.4924 19.041401 22.3244 25.960899 30.5879 33.387901 35.995399 39.558399 43.513401 50.7094 53.509399 57.527401 61.090401 65.045403 69.315399 73.956398"
         y="97.986"
         sodipodi:role="line"
         id="tspan474">reflected from ground</tspan></text><g
       id="g478"><g
         id="g480"
         clip-path="url(#clipPath484)"><text
           transform="matrix(1,0,0,-1,23.4092,3.4658)"
           style="font-variant:normal;font-weight:normal;font-stretch:normal;font-size:7px;font-family:'Segoe Print';-inkscape-font-specification:SegoePrint;writing-mode:lr-tb;fill:#f68712;fill-opacity:1;fill-rule:nonzero;stroke:none"
           id="text488"><tspan
             x="0 4.0180001 7.5809999 11.536 15.806 20.447001 25.073999 27.874001 29.896999 31.899 33.901001 38.171001 45.367001 47.389999 52.030998 56.139999 59.423 63.063 67.690002 70.489998 74.564003 78.700996 81.500999 86.127998 88.151001 91.751801 95.3918 98.940804 102.2238 105.0238 107.9918 112.2618 116.9028 118.9048 120.9278 124.9458 129.3278"
             y="0"
             sodipodi:role="line"
             id="tspan486">ground illuminated by direct sunlight</tspan></text><g
           id="g490"
           transform="translate(17.2768,8.9092)"><path
             d="M 0,0 C 0.509,-3.976 5.272,-4.526 5.272,-4.526"
             style="fill:none;stroke:#231f20;stroke-width:0.25;stroke-linecap:butt;stroke-linejoin:miter;stroke-miterlimit:10;stroke-dasharray:none;stroke-opacity:1"
             id="path492" /></g><g
           id="g494"
           transform="translate(16.8344,7.3252)"><path
             d="M 0,0 0.247,-0.043 0.527,1.57 1.349,0.154 1.565,0.279 0.399,2.29 Z"
             style="fill:#231f20;fill-opacity:1;fill-rule:nonzero;stroke:none"
             id="path496" /></g></g></g><text
       transform="matrix(1,0,0,-1,210.0322,66.998)"
       style="font-style:italic;font-variant:normal;font-weight:normal;font-stretch:normal;font-size:9px;font-family:'Myriad Pro';-inkscape-font-specification:MyriadPro-It;writing-mode:lr-tb;fill:#231f20;fill-opacity:1;fill-rule:nonzero;stroke:none"
       id="text9009"><tspan
         x="0"
         y="0"
         id="tspan9003"
         style="fill:#ffffff;fill-opacity:1">ℓ</tspan><tspan
         x="-57.582001"
         y="42.138"
         id="tspan9005">d</tspan></text><text
       transform="scale(1,-1)"
       style="font-variant:normal;font-weight:normal;font-stretch:normal;font-size:7px;font-family:'Segoe Print';-inkscape-font-specification:SegoePrint;writing-mode:lr-tb;fill:#000000;fill-opacity:1;fill-rule:nonzero;stroke:none"
       id="text32052"
       x="43.99678"
       y="-107.11763"><tspan
         x="43.99678"
         sodipodi:role="line"
         id="tspan32050"
         y="-107.11763">tandem</tspan></text><text
       transform="scale(1,-1)"
       style="font-variant:normal;font-weight:normal;font-stretch:normal;font-size:7px;font-family:'Segoe Print';-inkscape-font-specification:SegoePrint;writing-mode:lr-tb;fill:#000000;fill-opacity:1;fill-rule:nonzero;stroke:none"
       id="text45714"
       x="137.08362"
       y="-107.11763"><tspan
         x="137.08362"
         sodipodi:role="line"
         id="tspan45712"
         y="-107.11763">bifacial</tspan></text><text
       transform="scale(1,-1)"
       style="font-variant:normal;font-weight:normal;font-stretch:normal;font-size:7px;font-family:'Segoe Print';-inkscape-font-specification:SegoePrint;writing-mode:lr-tb;fill:#000000;fill-opacity:1;fill-rule:nonzero;stroke:none"
       id="text47748"
       x="212.59856"
       y="-107.11763"><tspan
         x="212.59856"
         sodipodi:role="line"
         id="tspan47746"
         y="-107.11763">monofacial</tspan></text></g><g
     inkscape:groupmode="layer"
     id="layer1"
     inkscape:label="bifacial_sketch_3D 1"
     style="display:inline"
     transform="translate(0,-8.9186164e-4)"><g
       id="g62"
       transform="matrix(1.3333333,0,0,-1.3333333,0,186.252)"><g
         id="g64"
         clip-path="url(#clipPath68)"><g
           id="g70"><g
             id="g72" /><g
             id="g84"><g
               clip-path="url(#clipPath76)"
               opacity="0.5"
               id="g82"><g
                 transform="translate(128.5424,71.8896)"
                 id="g80"><path
                   d="m 0,0 -115.996,-56.078 -12.546,-0.002 v 28.567 z"
                   style="fill:#cac9c9;fill-opacity:1;fill-rule:nonzero;stroke:none"
                   id="path78" /></g></g></g></g><g
           id="g86"><g
             id="g88" /><g
             id="g100"><g
               clip-path="url(#clipPath92)"
               opacity="0.5"
               id="g98"><g
                 transform="translate(128.6928,71.9141)"
                 id="g96"><path
                   d="M 0,0 -128.693,44.223 V 67.774 H 138.848 V 30.477 Z"
                   style="fill:#a9b9e4;fill-opacity:1;fill-rule:nonzero;stroke:none"
                   id="path94" /></g></g></g></g><g
           id="g102"><g
             id="g104" /><g
             id="g116"><g
               clip-path="url(#clipPath108)"
               opacity="0.5"
               id="g114"><g
                 transform="translate(128.6928,71.8652)"
                 id="g112"><path
                   d="m 0,0 86.83,-56.021 51.942,-0.011 v 9.26 z"
                   style="fill:#cac9c9;fill-opacity:1;fill-rule:nonzero;stroke:none"
                   id="path110" /></g></g></g></g><g
           id="g118"><g
             id="g120" /><g
             id="g132"><g
               clip-path="url(#clipPath124)"
               opacity="0.5"
               id="g130"><g
                 transform="translate(128.6396,71.9023)"
                 id="g128"><path
                   d="m 0,0 -91.784,-56.058 -24.309,-0.022 z"
                   style="fill:#fde4c4;fill-opacity:1;fill-rule:nonzero;stroke:none"
                   id="path126" /></g></g></g></g><g
           id="g134"><g
             id="g136" /><g
             id="g148"><g
               clip-path="url(#clipPath140)"
               opacity="0.5"
               id="g146"><g
                 transform="translate(128.6396,71.9023)"
                 id="g144"><path
                   d="m 0,0 -91.784,-56.058 65.024,-0.033 z"
                   style="fill:#cac9c9;fill-opacity:1;fill-rule:nonzero;stroke:none"
                   id="path142" /></g></g></g></g><g
           id="g150"><g
             id="g152" /><g
             id="g164"><g
               clip-path="url(#clipPath156)"
               opacity="0.5"
               id="g162"><g
                 transform="translate(128.6396,71.9023)"
                 id="g160"><path
                   d="m 0,0 -2.451,-56.058 65.024,-0.033 z"
                   style="fill:#cac9c9;fill-opacity:1;fill-rule:nonzero;stroke:none"
                   id="path158" /></g></g></g></g><g
           id="g166"><g
             id="g168" /><g
             id="g180"><g
               clip-path="url(#clipPath172)"
               opacity="0.5"
               id="g178"><g
                 transform="translate(128.6396,71.9023)"
                 id="g176"><path
                   d="M 0,0 -2.451,-56.058 -26.76,-56.091 Z"
                   style="fill:#fde4c4;fill-opacity:1;fill-rule:nonzero;stroke:none"
                   id="path174" /></g></g></g></g><g
           id="g182"><g
             id="g184" /><g
             id="g196"><g
               clip-path="url(#clipPath188)"
               opacity="0.5"
               id="g194"><g
                 transform="translate(128.6396,71.9023)"
                 id="g192"><path
                   d="M 0,0 86.883,-56.058 62.573,-56.08 Z"
                   style="fill:#fde4c4;fill-opacity:1;fill-rule:nonzero;stroke:none"
                   id="path190" /></g></g></g></g></g></g></g></svg>
